<?xml version="1.0" encoding="utf-8"?>
<!-- Generator: Adobe Illustrator 16.0.0, SVG Export Plug-In . SVG Version: 6.00 Build 0)  -->
<!DOCTYPE svg PUBLIC "-//W3C//DTD SVG 1.1//EN" "http://www.w3.org/Graphics/SVG/1.1/DTD/svg11.dtd">
<svg version="1.1" xmlns="http://www.w3.org/2000/svg" xmlns:xlink="http://www.w3.org/1999/xlink" x="0px" y="0px" width="400px"
	 height="400px" viewBox="0 0 400 400" enable-background="new 0 0 400 400" xml:space="preserve">
<g id="Layer_1">
	<path fill="none" d="M394,394V278V123c0-5.522-4.477-10-10-10l0,0c-5.523,0-10,4.478-10,10v155c0,5.522-4.477,10-10,10l0,0
		c-5.523,0-10-4.478-10-10V123c0-5.522-4.477-10-10-10l0,0c-5.523,0-10,4.478-10,10v155c0,5.522-4.477,10-10,10l0,0
		c-5.523,0-10-4.478-10-10V123c0-5.522-4.477-10-10-10l0,0c-5.523,0-10,4.478-10,10v152c0,5.522-4.477,10-10,10l0,0
		c-5.523,0-10-4.478-10-10v-36c0-69-24.75-92.5-24.75-92.5s-21.375-31-53.875-6s-46.688,77.75-25.188,93.25s44.781,5.75,57.281,0
		s30.744-19.703,28.505-33.977s-29.481-17.023-58.731,0.477L181.913,206c0,0-54.913,24-54.913-45v-36c0-5.522-4.477-10-10-10l0,0
		c-5.523,0-10,4.478-10,10v152c0,5.522-4.477,10-10,10l0,0c-5.523,0-10-4.478-10-10V122c0-5.522-4.477-10-10-10l0,0
		c-5.523,0-10,4.478-10,10v155c0,5.522-4.477,10-10,10l0,0c-5.523,0-10-4.478-10-10V122c0-5.522-4.477-10-10-10l0,0
		c-5.523,0-10,4.478-10,10v155c0,5.522-4.477,10-10,10l0,0c-5.523,0-10-4.478-10-10V122V6"/>
</g>
<g id="Layer_2">
	<path fill="none" d="M249.25,146.5c0,0-21.375-31-53.875-6s-46.688,77.75-25.188,93.25s44.781,5.75,57.281,0
		s30.744-19.703,28.505-33.977s-29.481-17.023-58.731,0.477"/>
</g>
</svg>
